<svg width="192" height="192" viewBox="0 0 192 192" xmlns="http://www.w3.org/2000/svg">
  <!-- 背景 -->
  <rect width="192" height="192" fill="#5a7ec5" rx="24"/>
  
  <!-- メイングラフィック -->
  <g transform="translate(24, 24)">
    <!-- 株式チャートのイメージ -->
    <path d="M20 120L40 100L60 80L80 60L100 40L120 30L140 20" 
          stroke="#ffffff" stroke-width="4" fill="none" stroke-linecap="round"/>
    
    <!-- データポイント -->
    <circle cx="20" cy="120" r="4" fill="#f8c291"/>
    <circle cx="40" cy="100" r="4" fill="#f8c291"/>
    <circle cx="60" cy="80" r="4" fill="#f8c291"/>
    <circle cx="80" cy="60" r="4" fill="#f8c291"/>
    <circle cx="100" cy="40" r="4" fill="#f8c291"/>
    <circle cx="120" cy="30" r="4" fill="#f8c291"/>
    <circle cx="140" cy="20" r="4" fill="#f8c291"/>
    
    <!-- 棒グラフ要素 -->
    <rect x="15" y="110" width="8" height="20" fill="#5db075" opacity="0.7"/>
    <rect x="35" y="95" width="8" height="35" fill="#5db075" opacity="0.7"/>
    <rect x="55" y="75" width="8" height="55" fill="#5db075" opacity="0.7"/>
    <rect x="75" y="55" width="8" height="75" fill="#5db075" opacity="0.7"/>
    
    <!-- 文字「株」をスタイライズ -->
    <text x="72" y="140" font-family="system-ui" font-size="24" font-weight="bold" fill="#ffffff" text-anchor="middle">株</text>
  </g>
  
  <!-- 四隅の装飾 -->
  <circle cx="24" cy="24" r="3" fill="#f8c291" opacity="0.5"/>
  <circle cx="168" cy="24" r="3" fill="#f8c291" opacity="0.5"/>
  <circle cx="24" cy="168" r="3" fill="#f8c291" opacity="0.5"/>
  <circle cx="168" cy="168" r="3" fill="#f8c291" opacity="0.5"/>
</svg>