<?xml version="1.0" standalone="no"?>
<!DOCTYPE svg PUBLIC "-//W3C//DTD SVG 20010904//EN"
 "http://www.w3.org/TR/2001/REC-SVG-20010904/DTD/svg10.dtd">
<svg version="1.0" xmlns="http://www.w3.org/2000/svg"
 width="192" height="192" viewBox="0 0 192 192"
 preserveAspectRatio="xMidYMid meet">
<metadata>
Created by potrace 1.16, written by Peter Selinger 2001-2019
</metadata>
<g transform="translate(0,192) scale(0.100000,-0.100000)"
fill="#000000" stroke="none">
<path d="M0 960 l0 -960 960 0 960 0 0 960 0 960 -960 0 -960 0 0 -960z m860
470 c18 -18 20 -34 20 -162 l0 -143 55 60 c30 33 94 106 142 162 l88 102 178
0 c135 1 177 -2 177 -11 0 -19 -38 -159 -44 -166 -3 -3 -15 3 -26 13 -11 10
-22 16 -23 14 -22 -28 -180 -215 -212 -251 l-42 -47 -67 51 -67 52 -62 -62
c-60 -60 -61 -63 -47 -86 18 -29 200 -252 293 -358 l68 -78 -73 1 c-40 0 -81
3 -90 7 -10 4 -65 71 -123 150 -58 78 -110 142 -115 142 -6 0 -10 -51 -10
-130 0 -178 7 -172 -192 -168 l-150 3 -24 28 c-15 18 -24 41 -24 62 0 33 1 34
48 37 40 3 47 6 50 26 5 34 -15 52 -59 52 l-39 0 0 65 0 65 41 -2 c30 -2 44 2
53 15 18 28 -4 51 -53 55 l-41 3 0 66 0 65 33 -5 c42 -6 67 8 67 38 0 28 -26
45 -69 45 l-31 0 0 59 0 60 48 3 c41 3 47 6 50 27 5 31 -21 51 -65 51 -31 0
-33 2 -33 34 0 25 7 40 26 55 24 19 40 21 175 21 136 0 151 -2 169 -20z m-296
-121 c17 -15 -6 -26 -61 -31 -56 -5 -81 8 -70 36 5 11 19 13 64 9 32 -3 62 -9
67 -14z m914 -419 c3 -227 -4 -375 -15 -328 -5 18 -93 31 -93 13 0 -5 -5 -3
-10 5 -11 17 -14 553 -3 564 4 4 32 6 63 4 l55 -3 3 -255z m-914 219 c20 -19
-16 -39 -71 -39 -56 0 -77 16 -54 44 12 14 108 11 125 -5z m776 -293 c0 -107
-3 -201 -6 -210 -4 -11 -10 -12 -22 -5 -10 5 -35 15 -57 23 l-40 13 -3 174
c-1 95 0 179 2 186 4 9 26 13 66 13 l60 0 0 -194z m-776 93 c20 -19 -4 -39
-49 -40 -25 -1 -50 -2 -56 -3 -20 -2 -34 30 -21 47 13 15 108 13 126 -4z m615
-41 c-1 -35 -3 -56 -6 -47 -4 16 -81 66 -95 61 -5 -1 -8 9 -8 23 0 24 3 25 55
25 l55 0 -1 -62z m-615 -169 c17 -15 -6 -26 -61 -31 -56 -5 -81 8 -69 37 4 12
17 14 63 9 32 -4 62 -10 67 -15z"/>
<path d="M659 873 c-6 -7 -8 -13 -3 -13 5 0 1 -5 -8 -11 -16 -9 -44 -49 -35
-49 1 0 22 20 45 43 28 28 37 44 27 44 -8 0 -20 -6 -26 -14z"/>
</g>
</svg>
