<svg width="1200" height="630" viewBox="0 0 1200 630" xmlns="http://www.w3.org/2000/svg" xmlns:xlink="http://www.w3.org/1999/xlink">
  <defs>
    <linearGradient id="bgGrad" x1="0%" y1="0%" x2="100%" y2="100%">
      <stop offset="0%" style="stop-color:#0f172a;stop-opacity:1" />
      <stop offset="100%" style="stop-color:#1e293b;stop-opacity:1" />
    </linearGradient>
    <linearGradient id="accentGrad" x1="0%" y1="0%" x2="100%" y2="0%">
      <stop offset="0%" style="stop-color:#3b82f6;stop-opacity:1" />
      <stop offset="100%" style="stop-color:#8b5cf6;stop-opacity:1" />
    </linearGradient>
    <linearGradient id="greenGrad" x1="0%" y1="0%" x2="100%" y2="0%">
      <stop offset="0%" style="stop-color:#10b981;stop-opacity:1" />
      <stop offset="100%" style="stop-color:#06b6d4;stop-opacity:1" />
    </linearGradient>
    <filter id="glow">
      <feGaussianBlur stdDeviation="3" result="coloredBlur"/>
      <feMerge>
        <feMergeNode in="coloredBlur"/>
        <feMergeNode in="SourceGraphic"/>
      </feMerge>
    </filter>
    <filter id="shadow">
      <feDropShadow dx="0" dy="4" stdDeviation="12" flood-color="#000000" flood-opacity="0.4"/>
    </filter>
  </defs>

  <!-- Background -->
  <rect width="1200" height="630" fill="url(#bgGrad)"/>

  <!-- Grid lines subtle -->
  <g opacity="0.05">
    <line x1="0" y1="105" x2="1200" y2="105" stroke="white" stroke-width="1"/>
    <line x1="0" y1="210" x2="1200" y2="210" stroke="white" stroke-width="1"/>
    <line x1="0" y1="315" x2="1200" y2="315" stroke="white" stroke-width="1"/>
    <line x1="0" y1="420" x2="1200" y2="420" stroke="white" stroke-width="1"/>
    <line x1="0" y1="525" x2="1200" y2="525" stroke="white" stroke-width="1"/>
    <line x1="240" y1="0" x2="240" y2="630" stroke="white" stroke-width="1"/>
    <line x1="480" y1="0" x2="480" y2="630" stroke="white" stroke-width="1"/>
    <line x1="720" y1="0" x2="720" y2="630" stroke="white" stroke-width="1"/>
    <line x1="960" y1="0" x2="960" y2="630" stroke="white" stroke-width="1"/>
  </g>

  <!-- Decorative circles -->
  <circle cx="1050" cy="100" r="200" fill="none" stroke="#3b82f6" stroke-width="1" opacity="0.15"/>
  <circle cx="1050" cy="100" r="150" fill="none" stroke="#8b5cf6" stroke-width="1" opacity="0.1"/>
  <circle cx="150" cy="530" r="150" fill="none" stroke="#10b981" stroke-width="1" opacity="0.15"/>

  <!-- Left side: text content -->
  <!-- Badge -->
  <rect x="80" y="80" width="180" height="32" rx="16" fill="#1e3a5f" stroke="#3b82f6" stroke-width="1"/>
  <text x="170" y="101" text-anchor="middle" font-family="'Noto Sans JP', 'Helvetica Neue', sans-serif" font-size="13" fill="#60a5fa">株式投資日記アプリ</text>

  <!-- Main title -->
  <text x="80" y="180" font-family="'Noto Sans JP', 'Helvetica Neue', sans-serif" font-size="72" font-weight="900" fill="white">カブログ</text>
  <text x="80" y="230" font-family="'Noto Sans JP', 'Helvetica Neue', sans-serif" font-size="28" font-weight="300" fill="#94a3b8">Stock-Dialy</text>

  <!-- Divider -->
  <rect x="80" y="255" width="60" height="4" rx="2" fill="url(#accentGrad)"/>

  <!-- Description -->
  <text x="80" y="305" font-family="'Noto Sans JP', 'Helvetica Neue', sans-serif" font-size="20" fill="#cbd5e1">投資の「なぜ」を記録し、</text>
  <text x="80" y="335" font-family="'Noto Sans JP', 'Helvetica Neue', sans-serif" font-size="20" fill="#cbd5e1">学びとして蓄積する</text>
  <text x="80" y="365" font-family="'Noto Sans JP', 'Helvetica Neue', sans-serif" font-size="20" fill="#cbd5e1">パーソナル投資知識ベース</text>

  <!-- Feature pills -->
  <rect x="80" y="400" width="140" height="36" rx="18" fill="#1e3a5f" stroke="#3b82f6" stroke-width="1"/>
  <text x="150" y="423" text-anchor="middle" font-family="'Noto Sans JP', 'Helvetica Neue', sans-serif" font-size="13" fill="#60a5fa">📊 FIFO損益計算</text>

  <rect x="235" y="400" width="140" height="36" rx="18" fill="#1a3a2a" stroke="#10b981" stroke-width="1"/>
  <text x="305" y="423" text-anchor="middle" font-family="'Noto Sans JP', 'Helvetica Neue', sans-serif" font-size="13" fill="#34d399">🤖 AI銘柄分析</text>

  <rect x="80" y="450" width="140" height="36" rx="18" fill="#2d1b4e" stroke="#8b5cf6" stroke-width="1"/>
  <text x="150" y="473" text-anchor="middle" font-family="'Noto Sans JP', 'Helvetica Neue', sans-serif" font-size="13" fill="#a78bfa">🕸 ネットワーク図</text>

  <rect x="235" y="450" width="140" height="36" rx="18" fill="#2d1a1a" stroke="#f59e0b" stroke-width="1"/>
  <text x="305" y="473" text-anchor="middle" font-family="'Noto Sans JP', 'Helvetica Neue', sans-serif" font-size="13" fill="#fbbf24">📝 投資理由記録</text>

  <!-- Right side: Mock UI card -->
  <g filter="url(#shadow)">
    <!-- Main card -->
    <rect x="580" y="50" width="560" height="530" rx="16" fill="#1e293b" stroke="#334155" stroke-width="1"/>

    <!-- Card header -->
    <rect x="580" y="50" width="560" height="56" rx="16" fill="#0f172a"/>
    <rect x="580" y="90" width="560" height="16" fill="#0f172a"/>

    <!-- Nav dots -->
    <circle cx="614" cy="78" r="6" fill="#ef4444"/>
    <circle cx="634" cy="78" r="6" fill="#f59e0b"/>
    <circle cx="654" cy="78" r="6" fill="#22c55e"/>

    <!-- URL bar -->
    <rect x="680" y="66" width="380" height="24" rx="12" fill="#1e293b"/>
    <text x="870" y="83" text-anchor="middle" font-family="monospace" font-size="11" fill="#64748b">kablog.example.com/diary/</text>

    <!-- Dashboard content -->
    <!-- Stats row -->
    <rect x="600" y="125" width="155" height="80" rx="10" fill="#0f172a" stroke="#1e3a5f" stroke-width="1"/>
    <text x="677" y="152" text-anchor="middle" font-family="'Noto Sans JP', sans-serif" font-size="11" fill="#64748b">保有銘柄数</text>
    <text x="677" y="183" text-anchor="middle" font-family="'Helvetica Neue', sans-serif" font-size="32" font-weight="700" fill="white">24</text>

    <rect x="768" y="125" width="155" height="80" rx="10" fill="#0f172a" stroke="#1a3a2a" stroke-width="1"/>
    <text x="845" y="152" text-anchor="middle" font-family="'Noto Sans JP', sans-serif" font-size="11" fill="#64748b">実現損益合計</text>
    <text x="845" y="183" text-anchor="middle" font-family="'Helvetica Neue', sans-serif" font-size="28" font-weight="700" fill="#10b981">+¥284,500</text>

    <rect x="936" y="125" width="185" height="80" rx="10" fill="#0f172a" stroke="#2d1b4e" stroke-width="1"/>
    <text x="1028" y="152" text-anchor="middle" font-family="'Noto Sans JP', sans-serif" font-size="11" fill="#64748b">勝率</text>
    <text x="1028" y="183" text-anchor="middle" font-family="'Helvetica Neue', sans-serif" font-size="32" font-weight="700" fill="#8b5cf6">68.4%</text>

    <!-- Chart area -->
    <rect x="600" y="220" width="340" height="180" rx="10" fill="#0f172a" stroke="#1e293b" stroke-width="1"/>
    <text x="770" y="245" text-anchor="middle" font-family="'Noto Sans JP', sans-serif" font-size="12" fill="#94a3b8">損益推移チャート</text>

    <!-- Chart bars -->
    <rect x="625" y="340" width="28" height="45" rx="4" fill="#3b82f6" opacity="0.7"/>
    <rect x="663" y="320" width="28" height="65" rx="4" fill="#3b82f6" opacity="0.7"/>
    <rect x="701" y="295" width="28" height="90" rx="4" fill="#10b981" opacity="0.8"/>
    <rect x="739" y="310" width="28" height="75" rx="4" fill="#10b981" opacity="0.8"/>
    <rect x="777" y="290" width="28" height="95" rx="4" fill="#10b981" opacity="0.8"/>
    <rect x="815" y="305" width="28" height="80" rx="4" fill="#ef4444" opacity="0.7"/>
    <rect x="853" y="280" width="28" height="105" rx="4" fill="#10b981" opacity="0.9"/>
    <rect x="891" y="265" width="28" height="120" rx="4" fill="#10b981" opacity="0.9"/>

    <!-- Line chart overlay -->
    <polyline points="639,345 677,325 715,300 753,315 791,295 829,310 867,285 905,270" fill="none" stroke="#60a5fa" stroke-width="2" opacity="0.6"/>

    <!-- Diary list -->
    <rect x="600" y="415" width="340" height="150" rx="10" fill="#0f172a" stroke="#1e293b" stroke-width="1"/>
    <text x="620" y="438" font-family="'Noto Sans JP', sans-serif" font-size="12" fill="#94a3b8">最近の記録</text>

    <!-- Diary items -->
    <rect x="616" y="448" width="308" height="38" rx="6" fill="#1e293b"/>
    <rect x="622" y="456" width="8" height="22" rx="4" fill="#10b981"/>
    <text x="640" y="468" font-family="'Noto Sans JP', sans-serif" font-size="12" font-weight="600" fill="white">7203 トヨタ自動車</text>
    <text x="640" y="482" font-family="'Noto Sans JP', sans-serif" font-size="10" fill="#64748b">100株保有 · 含み益 +¥45,200</text>
    <text x="900" y="470" text-anchor="end" font-family="sans-serif" font-size="12" fill="#10b981">+18.3%</text>

    <rect x="616" y="492" width="308" height="38" rx="6" fill="#1e293b"/>
    <rect x="622" y="500" width="8" height="22" rx="4" fill="#3b82f6"/>
    <text x="640" y="512" font-family="'Noto Sans JP', sans-serif" font-size="12" font-weight="600" fill="white">6758 ソニーグループ</text>
    <text x="640" y="526" font-family="'Noto Sans JP', sans-serif" font-size="10" fill="#64748b">50株保有 · 含み益 +¥12,500</text>
    <text x="900" y="514" text-anchor="end" font-family="sans-serif" font-size="12" fill="#10b981">+8.7%</text>

    <rect x="616" y="536" width="308" height="22" rx="6" fill="#1e293b" opacity="0.5"/>
    <text x="770" y="551" text-anchor="middle" font-family="'Noto Sans JP', sans-serif" font-size="10" fill="#475569">さらに22件...</text>

    <!-- Right panel: Network preview -->
    <rect x="953" y="220" width="168" height="345" rx="10" fill="#0f172a" stroke="#1e293b" stroke-width="1"/>
    <text x="1037" y="244" text-anchor="middle" font-family="'Noto Sans JP', sans-serif" font-size="11" fill="#94a3b8">銘柄ネットワーク</text>

    <!-- Network nodes -->
    <circle cx="1037" cy="330" r="22" fill="#1e3a5f" stroke="#3b82f6" stroke-width="2" filter="url(#glow)"/>
    <text x="1037" y="335" text-anchor="middle" font-family="sans-serif" font-size="9" fill="#60a5fa">7203</text>

    <circle cx="990" cy="295" r="16" fill="#1a3a2a" stroke="#10b981" stroke-width="1.5"/>
    <text x="990" y="299" text-anchor="middle" font-family="sans-serif" font-size="8" fill="#34d399">6758</text>

    <circle cx="1085" cy="285" r="14" fill="#2d1b4e" stroke="#8b5cf6" stroke-width="1.5"/>
    <text x="1085" y="289" text-anchor="middle" font-family="sans-serif" font-size="8" fill="#a78bfa">4519</text>

    <circle cx="1000" cy="370" r="12" fill="#2d1a1a" stroke="#f59e0b" stroke-width="1.5"/>
    <text x="1000" y="374" text-anchor="middle" font-family="sans-serif" font-size="8" fill="#fbbf24">8306</text>

    <circle cx="1080" cy="375" r="18" fill="#1e293b" stroke="#64748b" stroke-width="1.5"/>
    <text x="1080" y="379" text-anchor="middle" font-family="sans-serif" font-size="8" fill="#94a3b8">9432</text>

    <circle cx="970" cy="430" r="11" fill="#1a3a2a" stroke="#10b981" stroke-width="1.5"/>
    <text x="970" y="434" text-anchor="middle" font-family="sans-serif" font-size="8" fill="#34d399">6501</text>

    <circle cx="1100" cy="440" r="10" fill="#1e3a5f" stroke="#3b82f6" stroke-width="1.5"/>
    <text x="1100" y="444" text-anchor="middle" font-family="sans-serif" font-size="8" fill="#60a5fa">4063</text>

    <!-- Network edges -->
    <line x1="1037" y1="308" x2="990" y2="311" stroke="#3b82f6" stroke-width="1" opacity="0.4"/>
    <line x1="1037" y1="308" x2="1085" y2="299" stroke="#8b5cf6" stroke-width="1" opacity="0.4"/>
    <line x1="1037" y1="352" x2="1000" y2="358" stroke="#f59e0b" stroke-width="1" opacity="0.4"/>
    <line x1="1037" y1="352" x2="1080" y2="357" stroke="#64748b" stroke-width="1" opacity="0.4"/>
    <line x1="990" y1="311" x2="970" y2="419" stroke="#10b981" stroke-width="1" opacity="0.3"/>
    <line x1="1080" y1="393" x2="1100" y2="430" stroke="#3b82f6" stroke-width="1" opacity="0.3"/>

    <!-- Tag cloud in network panel -->
    <rect x="963" y="458" width="60" height="20" rx="10" fill="#1e3a5f"/>
    <text x="993" y="472" text-anchor="middle" font-family="sans-serif" font-size="9" fill="#60a5fa">#成長株</text>
    <rect x="1032" y="458" width="60" height="20" rx="10" fill="#1a3a2a"/>
    <text x="1062" y="472" text-anchor="middle" font-family="sans-serif" font-size="9" fill="#34d399">#半導体</text>
    <rect x="963" y="484" width="75" height="20" rx="10" fill="#2d1b4e"/>
    <text x="1000" y="498" text-anchor="middle" font-family="sans-serif" font-size="9" fill="#a78bfa">#配当投資</text>
    <rect x="1045" y="484" width="65" height="20" rx="10" fill="#2d1a1a"/>
    <text x="1078" y="498" text-anchor="middle" font-family="sans-serif" font-size="9" fill="#fbbf24">#地政学</text>
    <rect x="963" y="510" width="55" height="20" rx="10" fill="#1e3a5f"/>
    <text x="990" y="524" text-anchor="middle" font-family="sans-serif" font-size="9" fill="#60a5fa">#EV</text>
    <rect x="1025" y="510" width="80" height="20" rx="10" fill="#1a3a2a"/>
    <text x="1065" y="524" text-anchor="middle" font-family="sans-serif" font-size="9" fill="#34d399">#インフレ対策</text>
  </g>

  <!-- Bottom tagline -->
  <text x="600" y="610" text-anchor="middle" font-family="'Noto Sans JP', 'Helvetica Neue', sans-serif" font-size="16" fill="#475569">投資を記録し、分析し、成長する — あなただけの投資知識ベース</text>
</svg>
