<svg width="1200" height="630" viewBox="0 0 1200 630" xmlns="http://www.w3.org/2000/svg">
  <defs>
    <linearGradient id="bgGrad" x1="0%" y1="0%" x2="100%" y2="100%">
      <stop offset="0%" style="stop-color:#0a0e1a;stop-opacity:1" />
      <stop offset="100%" style="stop-color:#0f172a;stop-opacity:1" />
    </linearGradient>
    <linearGradient id="blueGrad" x1="0%" y1="0%" x2="100%" y2="0%">
      <stop offset="0%" style="stop-color:#3b82f6;stop-opacity:1" />
      <stop offset="100%" style="stop-color:#8b5cf6;stop-opacity:1" />
    </linearGradient>
    <linearGradient id="greenGrad" x1="0%" y1="100%" x2="0%" y2="0%">
      <stop offset="0%" style="stop-color:#10b981;stop-opacity:0.2" />
      <stop offset="100%" style="stop-color:#10b981;stop-opacity:0.8" />
    </linearGradient>
    <linearGradient id="blueBarGrad" x1="0%" y1="100%" x2="0%" y2="0%">
      <stop offset="0%" style="stop-color:#3b82f6;stop-opacity:0.3" />
      <stop offset="100%" style="stop-color:#3b82f6;stop-opacity:1" />
    </linearGradient>
    <filter id="shadow">
      <feDropShadow dx="0" dy="4" stdDeviation="12" flood-color="#000000" flood-opacity="0.4"/>
    </filter>
    <clipPath id="chartClip">
      <rect x="0" y="0" width="360" height="140"/>
    </clipPath>
  </defs>

  <!-- Background -->
  <rect width="1200" height="630" fill="url(#bgGrad)"/>

  <!-- Top bar -->
  <rect x="0" y="0" width="1200" height="52" fill="#0f172a" stroke="#1e293b" stroke-width="1"/>
  <rect x="0" y="0" width="1200" height="2" fill="url(#blueGrad)"/>
  <text x="30" y="32" font-family="'Noto Sans JP', 'Helvetica Neue', sans-serif" font-size="16" font-weight="900" fill="white">カブログ</text>
  <text x="110" y="34" font-family="'Noto Sans JP', sans-serif" font-size="12" fill="#475569">/ 分析ダッシュボード</text>

  <!-- Date range selector -->
  <rect x="750" y="14" width="200" height="24" rx="6" fill="#1e293b" stroke="#334155" stroke-width="1"/>
  <text x="850" y="30" text-anchor="middle" font-family="sans-serif" font-size="11" fill="#64748b">2024/01 〜 2025/04</text>

  <rect x="960" y="14" width="80" height="24" rx="6" fill="#1e3a5f" stroke="#3b82f6" stroke-width="1"/>
  <text x="1000" y="30" text-anchor="middle" font-family="sans-serif" font-size="11" fill="#60a5fa">1年</text>

  <rect x="1048" y="14" width="50" height="24" rx="6" fill="#1e293b"/>
  <text x="1073" y="30" text-anchor="middle" font-family="sans-serif" font-size="11" fill="#475569">6ヶ月</text>

  <rect x="1106" y="14" width="50" height="24" rx="6" fill="#1e293b"/>
  <text x="1131" y="30" text-anchor="middle" font-family="sans-serif" font-size="11" fill="#475569">全期間</text>

  <!-- KPI row -->
  <rect x="20" y="68" width="220" height="80" rx="10" fill="#0f172a" stroke="#1e3a5f" stroke-width="1" filter="url(#shadow)"/>
  <text x="42" y="93" font-family="'Noto Sans JP', sans-serif" font-size="11" fill="#64748b">実現損益合計</text>
  <text x="42" y="128" font-family="'Helvetica Neue', sans-serif" font-size="32" font-weight="700" fill="#10b981">+¥284,500</text>
  <text x="195" y="128" font-family="sans-serif" font-size="11" fill="#10b981">+32.4%</text>

  <rect x="252" y="68" width="180" height="80" rx="10" fill="#0f172a" stroke="#1e3a5f" stroke-width="1" filter="url(#shadow)"/>
  <text x="272" y="93" font-family="'Noto Sans JP', sans-serif" font-size="11" fill="#64748b">評価損益</text>
  <text x="272" y="128" font-family="'Helvetica Neue', sans-serif" font-size="32" font-weight="700" fill="#10b981">+¥152,300</text>

  <rect x="444" y="68" width="160" height="80" rx="10" fill="#0f172a" stroke="#1e3a5f" stroke-width="1" filter="url(#shadow)"/>
  <text x="464" y="93" font-family="'Noto Sans JP', sans-serif" font-size="11" fill="#64748b">勝率</text>
  <text x="464" y="128" font-family="'Helvetica Neue', sans-serif" font-size="32" font-weight="700" fill="#8b5cf6">68.4%</text>
  <text x="570" y="128" font-family="sans-serif" font-size="11" fill="#64748b">26/38</text>

  <rect x="616" y="68" width="160" height="80" rx="10" fill="#0f172a" stroke="#1e3a5f" stroke-width="1" filter="url(#shadow)"/>
  <text x="636" y="93" font-family="'Noto Sans JP', sans-serif" font-size="11" fill="#64748b">平均保有期間</text>
  <text x="636" y="128" font-family="'Helvetica Neue', sans-serif" font-size="28" font-weight="700" fill="white">287日</text>

  <rect x="788" y="68" width="160" height="80" rx="10" fill="#0f172a" stroke="#1e3a5f" stroke-width="1" filter="url(#shadow)"/>
  <text x="808" y="93" font-family="'Noto Sans JP', sans-serif" font-size="11" fill="#64748b">プロフィットファクター</text>
  <text x="808" y="128" font-family="'Helvetica Neue', sans-serif" font-size="32" font-weight="700" fill="#10b981">2.4</text>

  <rect x="960" y="68" width="220" height="80" rx="10" fill="#0f172a" stroke="#1e3a5f" stroke-width="1" filter="url(#shadow)"/>
  <text x="980" y="93" font-family="'Noto Sans JP', sans-serif" font-size="11" fill="#64748b">最大DD</text>
  <text x="980" y="128" font-family="'Helvetica Neue', sans-serif" font-size="28" font-weight="700" fill="#ef4444">-¥45,200</text>
  <text x="1148" y="128" font-family="sans-serif" font-size="11" fill="#ef4444">-8.2%</text>

  <!-- Main chart: cumulative P&L -->
  <rect x="20" y="163" width="580" height="220" rx="10" fill="#0f172a" stroke="#1e293b" stroke-width="1" filter="url(#shadow)"/>
  <text x="42" y="188" font-family="'Noto Sans JP', sans-serif" font-size="13" font-weight="600" fill="white">累積損益推移</text>
  <text x="42" y="203" font-family="'Noto Sans JP', sans-serif" font-size="11" fill="#475569">取引決済ごとの実現損益</text>

  <!-- Chart grid -->
  <line x1="42" y1="340" x2="578" y2="340" stroke="#1e293b" stroke-width="1"/>
  <line x1="42" y1="310" x2="578" y2="310" stroke="#1e293b" stroke-width="1"/>
  <line x1="42" y1="280" x2="578" y2="280" stroke="#1e293b" stroke-width="1"/>
  <line x1="42" y1="250" x2="578" y2="250" stroke="#1e293b" stroke-width="1"/>
  <line x1="42" y1="220" x2="578" y2="220" stroke="#1e293b" stroke-width="1"/>

  <!-- Y axis labels -->
  <text x="40" y="344" text-anchor="end" font-family="monospace" font-size="9" fill="#475569">0</text>
  <text x="40" y="314" text-anchor="end" font-family="monospace" font-size="9" fill="#475569">+5万</text>
  <text x="40" y="284" text-anchor="end" font-family="monospace" font-size="9" fill="#475569">+10万</text>
  <text x="40" y="254" text-anchor="end" font-family="monospace" font-size="9" fill="#475569">+20万</text>
  <text x="40" y="224" text-anchor="end" font-family="monospace" font-size="9" fill="#475569">+28万</text>

  <!-- Chart area fill -->
  <polygon points="55,340 100,335 150,325 200,315 245,320 290,305 340,290 390,272 440,268 490,260 540,245 578,240 578,340" fill="#10b981" opacity="0.15"/>

  <!-- Chart line -->
  <polyline points="55,340 100,335 150,325 200,315 245,320 290,305 340,290 390,272 440,268 490,260 540,245 578,240"
    fill="none" stroke="#10b981" stroke-width="2.5"/>

  <!-- Data points -->
  <circle cx="100" cy="335" r="3" fill="#10b981"/>
  <circle cx="200" cy="315" r="3" fill="#10b981"/>
  <circle cx="290" cy="305" r="3" fill="#10b981"/>
  <circle cx="390" cy="272" r="3" fill="#10b981"/>
  <circle cx="490" cy="260" r="3" fill="#10b981"/>
  <circle cx="578" cy="240" r="5" fill="#10b981" stroke="#0f172a" stroke-width="2"/>

  <!-- X axis labels -->
  <text x="55" y="358" font-family="monospace" font-size="9" fill="#475569">4月</text>
  <text x="155" y="358" font-family="monospace" font-size="9" fill="#475569">7月</text>
  <text x="255" y="358" font-family="monospace" font-size="9" fill="#475569">10月</text>
  <text x="355" y="358" font-family="monospace" font-size="9" fill="#475569">1月</text>
  <text x="455" y="358" font-family="monospace" font-size="9" fill="#475569">4月</text>

  <!-- Annotation -->
  <line x1="290" y1="305" x2="330" y2="270" stroke="#f59e0b" stroke-width="1" stroke-dasharray="2,2"/>
  <rect x="328" y="258" width="90" height="26" rx="4" fill="#2d1a1a" stroke="#f59e0b" stroke-width="1"/>
  <text x="373" y="274" text-anchor="middle" font-family="'Noto Sans JP', sans-serif" font-size="9" fill="#fbbf24">半導体株急落</text>

  <!-- Sector bar chart -->
  <rect x="614" y="163" width="566" height="220" rx="10" fill="#0f172a" stroke="#1e293b" stroke-width="1" filter="url(#shadow)"/>
  <text x="634" y="188" font-family="'Noto Sans JP', sans-serif" font-size="13" font-weight="600" fill="white">業種別パフォーマンス</text>
  <text x="634" y="203" font-family="'Noto Sans JP', sans-serif" font-size="11" fill="#475569">実現損益ランキング</text>

  <!-- Bar chart items -->
  <!-- 自動車 -->
  <rect x="634" y="218" width="18" height="18" rx="3" fill="#10b981"/>
  <text x="662" y="231" font-family="'Noto Sans JP', sans-serif" font-size="12" fill="#e2e8f0">自動車</text>
  <rect x="750" y="220" width="320" height="14" rx="7" fill="#0f2a1a"/>
  <rect x="750" y="220" width="280" height="14" rx="7" fill="#10b981" opacity="0.8"/>
  <text x="1162" y="232" text-anchor="end" font-family="'Helvetica Neue', sans-serif" font-size="12" fill="#10b981">+¥98,400</text>

  <!-- 半導体 -->
  <rect x="634" y="244" width="18" height="18" rx="3" fill="#3b82f6"/>
  <text x="662" y="257" font-family="'Noto Sans JP', sans-serif" font-size="12" fill="#e2e8f0">半導体</text>
  <rect x="750" y="246" width="320" height="14" rx="7" fill="#0f1f3a"/>
  <rect x="750" y="246" width="230" height="14" rx="7" fill="#3b82f6" opacity="0.8"/>
  <text x="1162" y="258" text-anchor="end" font-family="'Helvetica Neue', sans-serif" font-size="12" fill="#60a5fa">+¥75,200</text>

  <!-- 電気機器 -->
  <rect x="634" y="270" width="18" height="18" rx="3" fill="#8b5cf6"/>
  <text x="662" y="283" font-family="'Noto Sans JP', sans-serif" font-size="12" fill="#e2e8f0">電気機器</text>
  <rect x="750" y="272" width="320" height="14" rx="7" fill="#2d1b4e"/>
  <rect x="750" y="272" width="180" height="14" rx="7" fill="#8b5cf6" opacity="0.8"/>
  <text x="1162" y="284" text-anchor="end" font-family="'Helvetica Neue', sans-serif" font-size="12" fill="#a78bfa">+¥52,800</text>

  <!-- 通信 -->
  <rect x="634" y="296" width="18" height="18" rx="3" fill="#06b6d4"/>
  <text x="662" y="309" font-family="'Noto Sans JP', sans-serif" font-size="12" fill="#e2e8f0">通信</text>
  <rect x="750" y="298" width="320" height="14" rx="7" fill="#0f2a3a"/>
  <rect x="750" y="298" width="120" height="14" rx="7" fill="#06b6d4" opacity="0.8"/>
  <text x="1162" y="310" text-anchor="end" font-family="'Helvetica Neue', sans-serif" font-size="12" fill="#67e8f9">+¥32,100</text>

  <!-- 銀行 -->
  <rect x="634" y="322" width="18" height="18" rx="3" fill="#f59e0b"/>
  <text x="662" y="335" font-family="'Noto Sans JP', sans-serif" font-size="12" fill="#e2e8f0">銀行</text>
  <rect x="750" y="324" width="320" height="14" rx="7" fill="#2d1a0f"/>
  <rect x="750" y="324" width="80" height="14" rx="7" fill="#f59e0b" opacity="0.8"/>
  <text x="1162" y="336" text-anchor="end" font-family="'Helvetica Neue', sans-serif" font-size="12" fill="#fbbf24">+¥18,500</text>

  <!-- 化学 -->
  <rect x="634" y="348" width="18" height="18" rx="3" fill="#ef4444"/>
  <text x="662" y="361" font-family="'Noto Sans JP', sans-serif" font-size="12" fill="#e2e8f0">化学</text>
  <rect x="750" y="350" width="320" height="14" rx="7" fill="#2d0f0f"/>
  <rect x="750" y="350" width="45" height="14" rx="7" fill="#ef4444" opacity="0.8"/>
  <text x="1162" y="362" text-anchor="end" font-family="'Helvetica Neue', sans-serif" font-size="12" fill="#f87171">-¥8,200</text>

  <!-- Bottom row: Two smaller charts -->
  <!-- Win rate donut -->
  <rect x="20" y="397" width="280" height="218" rx="10" fill="#0f172a" stroke="#1e293b" stroke-width="1" filter="url(#shadow)"/>
  <text x="42" y="422" font-family="'Noto Sans JP', sans-serif" font-size="13" font-weight="600" fill="white">勝敗分布</text>

  <!-- Donut chart -->
  <circle cx="160" cy="510" r="70" fill="none" stroke="#1e293b" stroke-width="20"/>
  <!-- Win arc (68.4% = ~246 degrees) -->
  <circle cx="160" cy="510" r="70" fill="none" stroke="#10b981" stroke-width="20"
    stroke-dasharray="295 432" stroke-dashoffset="108" transform="rotate(-90 160 510)"/>
  <!-- Loss arc -->
  <circle cx="160" cy="510" r="70" fill="none" stroke="#ef4444" stroke-width="20"
    stroke-dasharray="137 432" stroke-dashoffset="-187" transform="rotate(-90 160 510)"/>

  <text x="160" y="505" text-anchor="middle" font-family="'Helvetica Neue', sans-serif" font-size="24" font-weight="700" fill="white">68.4%</text>
  <text x="160" y="523" text-anchor="middle" font-family="'Noto Sans JP', sans-serif" font-size="11" fill="#64748b">勝率</text>

  <circle cx="70" cy="575" r="5" fill="#10b981"/>
  <text x="82" y="580" font-family="'Noto Sans JP', sans-serif" font-size="11" fill="#94a3b8">利益: 26回</text>
  <circle cx="165" cy="575" r="5" fill="#ef4444"/>
  <text x="177" y="580" font-family="'Noto Sans JP', sans-serif" font-size="11" fill="#94a3b8">損失: 12回</text>

  <!-- Holding period histogram -->
  <rect x="314" y="397" width="286" height="218" rx="10" fill="#0f172a" stroke="#1e293b" stroke-width="1" filter="url(#shadow)"/>
  <text x="336" y="422" font-family="'Noto Sans JP', sans-serif" font-size="13" font-weight="600" fill="white">保有期間分布</text>

  <rect x="336" y="510" width="28" height="50" rx="4" fill="#3b82f6" opacity="0.7"/>
  <rect x="372" y="490" width="28" height="70" rx="4" fill="#3b82f6" opacity="0.8"/>
  <rect x="408" y="460" width="28" height="100" rx="4" fill="#3b82f6" opacity="0.9"/>
  <rect x="444" y="475" width="28" height="85" rx="4" fill="#3b82f6" opacity="0.85"/>
  <rect x="480" y="495" width="28" height="65" rx="4" fill="#3b82f6" opacity="0.7"/>
  <rect x="516" y="520" width="28" height="40" rx="4" fill="#3b82f6" opacity="0.6"/>
  <rect x="552" y="535" width="28" height="25" rx="4" fill="#3b82f6" opacity="0.5"/>

  <text x="350" y="575" font-family="'Noto Sans JP', sans-serif" font-size="10" fill="#475569">〜1ヶ月</text>
  <text x="412" y="575" font-family="'Noto Sans JP', sans-serif" font-size="10" fill="#475569">3ヶ月</text>
  <text x="473" y="575" font-family="'Noto Sans JP', sans-serif" font-size="10" fill="#475569">6ヶ月</text>
  <text x="534" y="575" font-family="'Noto Sans JP', sans-serif" font-size="10" fill="#475569">1年+</text>

  <text x="445" y="445" text-anchor="middle" font-family="'Noto Sans JP', sans-serif" font-size="11" fill="#60a5fa">最多</text>
  <line x1="422" y1="450" x2="422" y2="460" stroke="#60a5fa" stroke-width="1"/>

  <!-- AI Analysis panel -->
  <rect x="614" y="397" width="566" height="218" rx="10" fill="#0f172a" stroke="#1e293b" stroke-width="1" filter="url(#shadow)"/>
  <rect x="614" y="397" width="566" height="4" rx="2" fill="url(#blueGrad)"/>
  <text x="634" y="420" font-family="'Noto Sans JP', sans-serif" font-size="13" font-weight="600" fill="white">🤖 Gemini AI 銘柄分析</text>
  <rect x="1090" y="406" width="72" height="24" rx="6" fill="#1e3a5f" stroke="#3b82f6" stroke-width="1"/>
  <text x="1126" y="422" text-anchor="middle" font-family="'Noto Sans JP', sans-serif" font-size="11" fill="#60a5fa">再分析する</text>

  <!-- AI analysis content -->
  <rect x="634" y="433" width="528" height="168" rx="8" fill="#0a0e1a"/>

  <text x="654" y="456" font-family="'Noto Sans JP', sans-serif" font-size="11" fill="#64748b">7203 トヨタ自動車 · 分析日: 2025-04-01</text>

  <text x="654" y="478" font-family="'Noto Sans JP', sans-serif" font-size="13" fill="#e2e8f0">【強み】ハイブリッド技術の優位性と全固体電池開発の進捗が際立っています。</text>
  <text x="654" y="496" font-family="'Noto Sans JP', sans-serif" font-size="13" fill="#e2e8f0">北米市場でのHV需要拡大は継続見込みで、EV専業他社に対してコスト競争力も</text>
  <text x="654" y="514" font-family="'Noto Sans JP', sans-serif" font-size="13" fill="#e2e8f0">維持できています。配当利回り2.8%も下値支持要因。</text>

  <text x="654" y="536" font-family="'Noto Sans JP', sans-serif" font-size="13" fill="#fbbf24">【注意点】円安依存の収益構造、中国市場での競争激化を継続モニタリング推奨。</text>
  <text x="654" y="554" font-family="'Noto Sans JP', sans-serif" font-size="13" fill="#fbbf24">地政学リスク（米中関税）の影響度を四半期決算で確認してください。</text>

  <rect x="654" y="570" width="80" height="20" rx="10" fill="#0f2a1a" stroke="#10b981" stroke-width="1"/>
  <text x="694" y="584" text-anchor="middle" font-family="sans-serif" font-size="10" fill="#34d399">継続保有 推奨</text>
  <rect x="742" y="570" width="90" height="20" rx="10" fill="#1e3a5f" stroke="#3b82f6" stroke-width="1"/>
  <text x="787" y="584" text-anchor="middle" font-family="sans-serif" font-size="10" fill="#60a5fa">スコア: 78/100</text>

  <!-- Bottom text -->
  <rect x="0" y="620" width="1200" height="10" fill="url(#blueGrad)" opacity="0.1"/>
  <text x="600" y="618" text-anchor="middle" font-family="'Noto Sans JP', sans-serif" font-size="13" fill="#475569">FIFO損益計算 × 業種別分析 × Gemini AI — データで投資を振り返る</text>
</svg>
