<svg width="1200" height="630" viewBox="0 0 1200 630" xmlns="http://www.w3.org/2000/svg">
  <defs>
    <linearGradient id="bgGrad" x1="0%" y1="0%" x2="100%" y2="100%">
      <stop offset="0%" style="stop-color:#f8fafc;stop-opacity:1" />
      <stop offset="100%" style="stop-color:#f1f5f9;stop-opacity:1" />
    </linearGradient>
    <linearGradient id="accentGrad" x1="0%" y1="0%" x2="100%" y2="0%">
      <stop offset="0%" style="stop-color:#3b82f6;stop-opacity:1" />
      <stop offset="100%" style="stop-color:#8b5cf6;stop-opacity:1" />
    </linearGradient>
    <filter id="shadow">
      <feDropShadow dx="0" dy="4" stdDeviation="12" flood-color="#000000" flood-opacity="0.1"/>
    </filter>
    <filter id="shadow2">
      <feDropShadow dx="0" dy="2" stdDeviation="6" flood-color="#000000" flood-opacity="0.08"/>
    </filter>
  </defs>

  <!-- Background -->
  <rect width="1200" height="630" fill="url(#bgGrad)"/>

  <!-- Top bar -->
  <rect x="0" y="0" width="1200" height="56" fill="white" filter="url(#shadow2)"/>
  <rect x="0" y="0" width="1200" height="3" fill="url(#accentGrad)"/>

  <text x="40" y="34" font-family="'Noto Sans JP', 'Helvetica Neue', sans-serif" font-size="18" font-weight="900" fill="#1e293b">カブログ</text>
  <text x="140" y="36" font-family="'Noto Sans JP', sans-serif" font-size="12" fill="#94a3b8">Kablog</text>

  <!-- Search bar in header -->
  <rect x="300" y="14" width="600" height="30" rx="15" fill="#f1f5f9" stroke="#e2e8f0" stroke-width="1"/>
  <text x="328" y="33" font-family="sans-serif" font-size="13" fill="#94a3b8">🔍</text>
  <text x="350" y="34" font-family="'Noto Sans JP', sans-serif" font-size="13" fill="#1e293b">地政学リスク</text>
  <rect x="840" y="20" width="50" height="18" rx="4" fill="#dbeafe"/>
  <text x="865" y="32" text-anchor="middle" font-family="sans-serif" font-size="10" fill="#2563eb">×</text>
  <rect x="900" y="16" width="65" height="26" rx="6" fill="url(#accentGrad)"/>
  <text x="933" y="33" text-anchor="middle" font-family="'Noto Sans JP', sans-serif" font-size="12" fill="white">検索</text>

  <!-- User -->
  <circle cx="1150" cy="28" r="18" fill="#e2e8f0"/>
  <text x="1150" y="33" text-anchor="middle" font-family="sans-serif" font-size="12" fill="#64748b">T</text>

  <!-- Left Sidebar -->
  <g filter="url(#shadow)">
    <rect x="20" y="72" width="260" height="545" rx="12" fill="white" stroke="#e2e8f0" stroke-width="1"/>
  </g>

  <text x="42" y="100" font-family="'Noto Sans JP', sans-serif" font-size="14" font-weight="700" fill="#1e293b">絞り込み</text>

  <!-- Status filter -->
  <text x="42" y="126" font-family="'Noto Sans JP', sans-serif" font-size="11" fill="#64748b">ステータス</text>

  <rect x="42" y="134" width="218" height="30" rx="6" fill="#f1f5f9"/>
  <rect x="44" y="136" width="68" height="26" rx="5" fill="#dbeafe"/>
  <text x="78" y="153" text-anchor="middle" font-family="'Noto Sans JP', sans-serif" font-size="11" fill="#2563eb">すべて</text>
  <text x="148" y="153" text-anchor="middle" font-family="'Noto Sans JP', sans-serif" font-size="11" fill="#94a3b8">保有中</text>
  <text x="220" y="153" text-anchor="middle" font-family="'Noto Sans JP', sans-serif" font-size="11" fill="#94a3b8">売却済</text>

  <!-- Hashtags section -->
  <text x="42" y="184" font-family="'Noto Sans JP', sans-serif" font-size="11" fill="#64748b">ハッシュタグ</text>

  <!-- Tag chips -->
  <rect x="42" y="193" width="80" height="26" rx="13" fill="#dbeafe" stroke="#bfdbfe" stroke-width="1"/>
  <text x="82" y="210" text-anchor="middle" font-family="sans-serif" font-size="11" fill="#1d4ed8">#地政学リスク</text>

  <rect x="130" y="193" width="60" height="26" rx="13" fill="#f0fdf4" stroke="#bbf7d0" stroke-width="1"/>
  <text x="160" y="210" text-anchor="middle" font-family="sans-serif" font-size="11" fill="#059669">#半導体</text>

  <rect x="198" y="193" width="52" height="26" rx="13" fill="#f5f3ff" stroke="#e9d5ff" stroke-width="1"/>
  <text x="224" y="210" text-anchor="middle" font-family="sans-serif" font-size="11" fill="#7c3aed">#成長株</text>

  <rect x="42" y="226" width="60" height="26" rx="13" fill="#fff7ed" stroke="#fed7aa" stroke-width="1"/>
  <text x="72" y="243" text-anchor="middle" font-family="sans-serif" font-size="11" fill="#c2410c">#インフレ</text>

  <rect x="110" y="226" width="55" height="26" rx="13" fill="#f0f9ff" stroke="#bae6fd" stroke-width="1"/>
  <text x="137" y="243" text-anchor="middle" font-family="sans-serif" font-size="11" fill="#0369a1">#配当</text>

  <rect x="173" y="226" width="40" height="26" rx="13" fill="#fdf4ff" stroke="#e9d5ff" stroke-width="1"/>
  <text x="193" y="243" text-anchor="middle" font-family="sans-serif" font-size="11" fill="#9333ea">#EV</text>

  <rect x="42" y="259" width="70" height="26" rx="13" fill="#ecfdf5" stroke="#a7f3d0" stroke-width="1"/>
  <text x="77" y="276" text-anchor="middle" font-family="sans-serif" font-size="11" fill="#047857">#円安</text>

  <rect x="120" y="259" width="55" height="26" rx="13" fill="#eff6ff" stroke="#bfdbfe" stroke-width="1"/>
  <text x="147" y="276" text-anchor="middle" font-family="sans-serif" font-size="11" fill="#1d4ed8">#米国株</text>

  <rect x="183" y="259" width="75" height="26" rx="13" fill="#fff1f2" stroke="#fecdd3" stroke-width="1"/>
  <text x="220" y="276" text-anchor="middle" font-family="sans-serif" font-size="11" fill="#be123c">#金利上昇</text>

  <!-- Sector section -->
  <text x="42" y="308" font-family="'Noto Sans JP', sans-serif" font-size="11" fill="#64748b">業種</text>

  <rect x="42" y="317" width="216" height="34" rx="6" fill="#f8fafc"/>
  <rect x="44" y="319" width="4" height="30" rx="2" fill="#3b82f6"/>
  <text x="58" y="333" font-family="'Noto Sans JP', sans-serif" font-size="12" fill="#1e293b">自動車</text>
  <rect x="200" y="325" width="50" height="18" rx="9" fill="#dbeafe"/>
  <text x="225" y="338" text-anchor="middle" font-family="sans-serif" font-size="10" fill="#2563eb">8銘柄</text>

  <rect x="42" y="355" width="216" height="34" rx="6" fill="#f8fafc"/>
  <rect x="44" y="357" width="4" height="30" rx="2" fill="#10b981"/>
  <text x="58" y="371" font-family="'Noto Sans JP', sans-serif" font-size="12" fill="#1e293b">半導体・電子部品</text>
  <rect x="200" y="363" width="50" height="18" rx="9" fill="#d1fae5"/>
  <text x="225" y="376" text-anchor="middle" font-family="sans-serif" font-size="10" fill="#059669">6銘柄</text>

  <rect x="42" y="393" width="216" height="34" rx="6" fill="#f8fafc"/>
  <rect x="44" y="395" width="4" height="30" rx="2" fill="#8b5cf6"/>
  <text x="58" y="409" font-family="'Noto Sans JP', sans-serif" font-size="12" fill="#1e293b">電気機器</text>
  <rect x="200" y="401" width="50" height="18" rx="9" fill="#ede9fe"/>
  <text x="225" y="414" text-anchor="middle" font-family="sans-serif" font-size="10" fill="#7c3aed">5銘柄</text>

  <rect x="42" y="431" width="216" height="34" rx="6" fill="#f8fafc"/>
  <rect x="44" y="433" width="4" height="30" rx="2" fill="#f59e0b"/>
  <text x="58" y="447" font-family="'Noto Sans JP', sans-serif" font-size="12" fill="#1e293b">銀行・金融</text>
  <rect x="200" y="439" width="50" height="18" rx="9" fill="#fef3c7"/>
  <text x="225" y="452" text-anchor="middle" font-family="sans-serif" font-size="10" fill="#d97706">4銘柄</text>

  <rect x="42" y="469" width="216" height="34" rx="6" fill="#f8fafc"/>
  <rect x="44" y="471" width="4" height="30" rx="2" fill="#64748b"/>
  <text x="58" y="485" font-family="'Noto Sans JP', sans-serif" font-size="12" fill="#1e293b">通信</text>
  <rect x="200" y="477" width="50" height="18" rx="9" fill="#f1f5f9"/>
  <text x="225" y="490" text-anchor="middle" font-family="sans-serif" font-size="10" fill="#475569">3銘柄</text>

  <!-- Sort by -->
  <text x="42" y="524" font-family="'Noto Sans JP', sans-serif" font-size="11" fill="#64748b">並び順</text>
  <rect x="42" y="532" width="216" height="30" rx="6" fill="#f1f5f9" stroke="#e2e8f0" stroke-width="1"/>
  <text x="150" y="551" text-anchor="middle" font-family="'Noto Sans JP', sans-serif" font-size="12" fill="#1e293b">関連度順 ▾</text>

  <!-- Main search results area -->
  <g filter="url(#shadow)">
    <rect x="295" y="72" width="885" height="545" rx="12" fill="white" stroke="#e2e8f0" stroke-width="1"/>
  </g>

  <!-- Results header -->
  <text x="320" y="103" font-family="'Noto Sans JP', sans-serif" font-size="15" font-weight="700" fill="#1e293b">「地政学リスク」の検索結果</text>
  <rect x="500" y="89" width="80" height="24" rx="12" fill="#dbeafe"/>
  <text x="540" y="105" text-anchor="middle" font-family="'Noto Sans JP', sans-serif" font-size="12" fill="#2563eb">14件</text>

  <!-- Result type tabs -->
  <rect x="320" y="114" width="840" height="34" rx="8" fill="#f8fafc" stroke="#e2e8f0" stroke-width="1"/>
  <rect x="323" y="116" width="120" height="30" rx="6" fill="white" filter="url(#shadow2)"/>
  <text x="383" y="135" text-anchor="middle" font-family="'Noto Sans JP', sans-serif" font-size="12" fill="#1e293b" font-weight="600">日記 (8)</text>
  <text x="490" y="135" text-anchor="middle" font-family="'Noto Sans JP', sans-serif" font-size="12" fill="#94a3b8">ノート (4)</text>
  <text x="580" y="135" text-anchor="middle" font-family="'Noto Sans JP', sans-serif" font-size="12" fill="#94a3b8">タグ (2)</text>

  <!-- Search Result 1 -->
  <rect x="315" y="160" width="845" height="118" rx="10" fill="#fafafa" stroke="#e2e8f0" stroke-width="1"/>

  <!-- Stock badge -->
  <rect x="335" y="175" width="55" height="24" rx="6" fill="#dbeafe"/>
  <text x="363" y="191" text-anchor="middle" font-family="'Helvetica Neue', sans-serif" font-size="12" font-weight="700" fill="#1d4ed8">7203</text>

  <text x="402" y="186" font-family="'Noto Sans JP', sans-serif" font-size="15" font-weight="700" fill="#1e293b">トヨタ自動車</text>
  <rect x="540" y="173" width="60" height="20" rx="10" fill="#dcfce7"/>
  <text x="570" y="187" text-anchor="middle" font-family="'Noto Sans JP', sans-serif" font-size="10" fill="#16a34a">保有中</text>

  <text x="1120" y="185" text-anchor="end" font-family="'Noto Sans JP', sans-serif" font-size="11" fill="#94a3b8">2025/01/15</text>

  <!-- Match snippet -->
  <text x="335" y="212" font-family="'Noto Sans JP', sans-serif" font-size="13" fill="#374151">投資理由: EV シフトの中でも #ハイブリッド 戦略の優位性を評価。規制強化による</text>
  <rect x="820" y="200" width="95" height="18" rx="3" fill="#fef9c3"/>
  <text x="867" y="213" text-anchor="middle" font-family="'Noto Sans JP', sans-serif" font-size="13" fill="#1e293b" font-weight="600">地政学リスク</text>
  <text x="335" y="232" font-family="'Noto Sans JP', sans-serif" font-size="13" fill="#374151">の顕在化に注意が必要だが、サプライチェーン多様化で対応可能と判断。</text>

  <!-- Tags on result -->
  <rect x="335" y="248" width="75" height="20" rx="10" fill="#dbeafe"/>
  <text x="372" y="262" text-anchor="middle" font-family="sans-serif" font-size="10" fill="#1d4ed8">#地政学リスク</text>
  <rect x="418" y="248" width="55" height="20" rx="10" fill="#f0fdf4"/>
  <text x="445" y="262" text-anchor="middle" font-family="sans-serif" font-size="10" fill="#059669">#成長株</text>
  <rect x="481" y="248" width="40" height="20" rx="10" fill="#fff7ed"/>
  <text x="501" y="262" text-anchor="middle" font-family="sans-serif" font-size="10" fill="#c2410c">#EV</text>

  <text x="1120" y="263" text-anchor="end" font-family="'Noto Sans JP', sans-serif" font-size="11" fill="#2563eb">詳細を見る →</text>

  <!-- Search Result 2 -->
  <rect x="315" y="288" width="845" height="118" rx="10" fill="#fafafa" stroke="#e2e8f0" stroke-width="1"/>

  <rect x="335" y="303" width="55" height="24" rx="6" fill="#f0fdf4"/>
  <text x="363" y="319" text-anchor="middle" font-family="'Helvetica Neue', sans-serif" font-size="12" font-weight="700" fill="#059669">8306</text>

  <text x="402" y="314" font-family="'Noto Sans JP', sans-serif" font-size="15" font-weight="700" fill="#1e293b">三菱UFJフィナンシャル</text>
  <rect x="620" y="301" width="60" height="20" rx="10" fill="#dcfce7"/>
  <text x="650" y="315" text-anchor="middle" font-family="'Noto Sans JP', sans-serif" font-size="10" fill="#16a34a">保有中</text>

  <text x="1120" y="313" text-anchor="end" font-family="'Noto Sans JP', sans-serif" font-size="11" fill="#94a3b8">2024/11/20</text>

  <!-- Match snippet: note type -->
  <rect x="335" y="325" width="80" height="18" rx="9" fill="#fef3c7"/>
  <text x="375" y="338" text-anchor="middle" font-family="'Noto Sans JP', sans-serif" font-size="10" fill="#d97706">継続ノート</text>

  <text x="425" y="339" font-family="'Noto Sans JP', sans-serif" font-size="13" fill="#374151">米中対立激化による</text>
  <rect x="574" y="327" width="95" height="18" rx="3" fill="#fef9c3"/>
  <text x="621" y="340" text-anchor="middle" font-family="'Noto Sans JP', sans-serif" font-size="13" fill="#1e293b" font-weight="600">地政学リスク</text>
  <text x="672" y="339" font-family="'Noto Sans JP', sans-serif" font-size="13" fill="#374151">が高まる中、金利上昇の</text>
  <text x="335" y="358" font-family="'Noto Sans JP', sans-serif" font-size="13" fill="#374151">追い風が続く。次の決算で業績確認予定。</text>

  <rect x="335" y="374" width="75" height="20" rx="10" fill="#dbeafe"/>
  <text x="372" y="388" text-anchor="middle" font-family="sans-serif" font-size="10" fill="#1d4ed8">#地政学リスク</text>
  <rect x="418" y="374" width="65" height="20" rx="10" fill="#fef3c7"/>
  <text x="450" y="388" text-anchor="middle" font-family="sans-serif" font-size="10" fill="#d97706">#金利上昇</text>

  <text x="1120" y="388" text-anchor="end" font-family="'Noto Sans JP', sans-serif" font-size="11" fill="#2563eb">詳細を見る →</text>

  <!-- Search Result 3 -->
  <rect x="315" y="416" width="845" height="118" rx="10" fill="#fafafa" stroke="#e2e8f0" stroke-width="1"/>

  <rect x="335" y="431" width="55" height="24" rx="6" fill="#f5f3ff"/>
  <text x="363" y="447" text-anchor="middle" font-family="'Helvetica Neue', sans-serif" font-size="12" font-weight="700" fill="#7c3aed">6920</text>

  <text x="402" y="442" font-family="'Noto Sans JP', sans-serif" font-size="15" font-weight="700" fill="#1e293b">レーザーテック</text>
  <rect x="528" y="429" width="60" height="20" rx="10" fill="#fef3c7"/>
  <text x="558" y="443" text-anchor="middle" font-family="'Noto Sans JP', sans-serif" font-size="10" fill="#d97706">売却済</text>

  <text x="1120" y="441" text-anchor="end" font-family="'Noto Sans JP', sans-serif" font-size="11" fill="#94a3b8">2024/08/10</text>

  <text x="335" y="465" font-family="'Noto Sans JP', sans-serif" font-size="13" fill="#374151">売却理由: ASML の輸出規制強化と米中の</text>
  <rect x="618" y="453" width="95" height="18" rx="3" fill="#fef9c3"/>
  <text x="665" y="466" text-anchor="middle" font-family="'Noto Sans JP', sans-serif" font-size="13" fill="#1e293b" font-weight="600">地政学リスク</text>
  <text x="716" y="465" font-family="'Noto Sans JP', sans-serif" font-size="13" fill="#374151">によるサプライチェーン</text>
  <text x="335" y="484" font-family="'Noto Sans JP', sans-serif" font-size="13" fill="#374151">リスクが想定以上に高まったため。振り返り: 判断は正解だった。</text>

  <rect x="335" y="500" width="75" height="20" rx="10" fill="#dbeafe"/>
  <text x="372" y="514" text-anchor="middle" font-family="sans-serif" font-size="10" fill="#1d4ed8">#地政学リスク</text>
  <rect x="418" y="500" width="55" height="20" rx="10" fill="#f0fdf4"/>
  <text x="445" y="514" text-anchor="middle" font-family="sans-serif" font-size="10" fill="#059669">#半導体</text>

  <!-- Profit badge on sold stock -->
  <rect x="1050" y="498" width="70" height="20" rx="10" fill="#dcfce7"/>
  <text x="1085" y="512" text-anchor="middle" font-family="'Helvetica Neue', sans-serif" font-size="11" fill="#16a34a">+¥28,400</text>
  <text x="1120" y="514" text-anchor="end" font-family="'Noto Sans JP', sans-serif" font-size="11" fill="#2563eb">詳細を見る →</text>

  <!-- Result 4: abbreviated -->
  <rect x="315" y="544" width="845" height="62" rx="10" fill="#f8fafc" stroke="#e2e8f0" stroke-width="1"/>
  <rect x="335" y="559" width="55" height="24" rx="6" fill="#fef3c7"/>
  <text x="363" y="575" text-anchor="middle" font-family="'Helvetica Neue', sans-serif" font-size="12" font-weight="700" fill="#d97706">4519</text>
  <text x="402" y="570" font-family="'Noto Sans JP', sans-serif" font-size="14" font-weight="600" fill="#1e293b">中外製薬</text>
  <text x="402" y="587" font-family="'Noto Sans JP', sans-serif" font-size="12" fill="#64748b">... 為替と地政学リスクが利益率に与える影響を継続監視 ...</text>
  <text x="1120" y="580" text-anchor="end" font-family="'Noto Sans JP', sans-serif" font-size="11" fill="#94a3b8">他 5件 →</text>

  <!-- Bottom caption -->
  <rect x="0" y="620" width="1200" height="10" fill="url(#accentGrad)" opacity="0.1"/>
  <text x="600" y="618" text-anchor="middle" font-family="'Noto Sans JP', sans-serif" font-size="13" fill="#64748b">全文検索 — 投資理由・継続ノート・ハッシュタグをまたいで横断検索、過去の思考をすぐに掘り起こす</text>
</svg>
